<svg width="194" height="37" viewBox="0 0 194 37" fill="none" xmlns="http://www.w3.org/2000/svg">
<path d="M193.81 8.83008V9.72008C193.81 10.0301 193.76 10.2301 193.65 10.3401C193.54 10.4501 193.34 10.5001 193.03 10.5001H188.08V28.2101C188.08 28.5201 188.03 28.7201 187.92 28.8301C187.81 28.9401 187.61 28.9901 187.3 28.9901H185.77V10.5001V9.61008C185.77 9.30008 185.82 9.10008 185.93 8.99008C186.04 8.88008 186.24 8.83008 186.55 8.83008H193.81Z" fill="white"/>
<path d="M174.03 18.3701L171.81 20.5901L170.18 18.9601L172.91 16.2301L173.99 17.3101C174.21 17.5301 174.32 17.7001 174.34 17.8401C174.35 17.9801 174.25 18.1601 174.03 18.3701ZM170.18 17.7001V8.83008H168.65C168.34 8.83008 168.14 8.88008 168.03 8.99008C167.92 9.10008 167.87 9.30008 167.87 9.61008V28.9901H169.4C169.71 28.9901 169.91 28.9401 170.02 28.8301C170.13 28.7201 170.18 28.5201 170.18 28.2101V19.3701V17.7001ZM176.54 8.83008C176.23 8.83008 176.03 8.88008 175.92 8.99008C175.81 9.10008 175.76 9.30008 175.76 9.61008V28.9901H177.29C177.6 28.9901 177.8 28.9401 177.91 28.8301C178.02 28.7201 178.07 28.5201 178.07 28.2101V8.83008H176.54Z" fill="white"/>
<path d="M157.84 8.83008H159.39C159.7 8.83008 159.9 8.88008 160.01 8.99008C160.12 9.10008 160.17 9.30008 160.17 9.61008V28.9901H158.64C158.33 28.9901 158.13 28.9401 158.02 28.8301C157.91 28.7201 157.86 28.5201 157.86 28.2101V16.2901L158.29 12.2601H158.12L156.51 16.9001L151.18 28.9901H149.68C149.37 28.9901 149.17 28.9401 149.06 28.8301C148.95 28.7201 148.9 28.5201 148.9 28.2101V8.83008H150.43C150.74 8.83008 150.94 8.88008 151.05 8.99008C151.16 9.10008 151.21 9.30008 151.21 9.61008V21.0701L150.75 25.4501H150.92L152.5 21.1601L157.84 8.83008Z" fill="white"/>
<path d="M136.05 28.9901C135.74 28.9901 135.55 28.9401 135.46 28.8301C135.37 28.7201 135.33 28.5201 135.33 28.2101V27.3201H137.55C138.14 27.3201 138.52 27.2001 138.67 26.9501C138.82 26.7001 138.9 26.2801 138.9 25.6801V21.0101C138.9 20.4201 138.82 19.9901 138.67 19.7401C138.52 19.4901 138.14 19.3701 137.55 19.3701H134.18V28.9901H131.88V9.61008C131.88 9.30008 131.93 9.10008 132.04 8.99008C132.15 8.88008 132.35 8.83008 132.66 8.83008H138.48C139.48 8.83008 140.18 9.04008 140.6 9.45008C141.01 9.86008 141.22 10.5701 141.22 11.5701V15.7701C141.22 17.2501 140.69 18.1101 139.64 18.3601V18.4201C140.2 18.5701 140.6 18.8501 140.85 19.2501C141.1 19.6501 141.22 20.2401 141.22 21.0101V26.2501C141.22 27.2501 141.01 27.9501 140.6 28.3701C140.19 28.7801 139.48 28.9901 138.48 28.9901H136.05ZM134.18 10.5001V17.7001H137.72C138.22 17.6801 138.54 17.5401 138.68 17.2801C138.82 17.0201 138.9 16.6101 138.9 16.0601V12.1401C138.9 11.5501 138.82 11.1201 138.67 10.8701C138.52 10.6201 138.14 10.5001 137.55 10.5001H134.18Z" fill="white"/>
<path d="M120.31 7.4901L118.09 9.7101L116.46 8.0801L119.19 5.3501L120.27 6.4301C120.49 6.6501 120.6 6.8201 120.62 6.9601C120.63 7.0901 120.53 7.2701 120.31 7.4901ZM121.63 8.8301H123.18C123.49 8.8301 123.69 8.8801 123.8 8.9901C123.91 9.1001 123.96 9.3001 123.96 9.6101V28.9901H122.43C122.12 28.9901 121.92 28.9401 121.81 28.8301C121.7 28.7201 121.65 28.5201 121.65 28.2101V16.2901L122.08 12.2601H121.91L120.3 16.9001L114.97 28.9901H113.47C113.16 28.9901 112.96 28.9401 112.85 28.8301C112.74 28.7201 112.69 28.5201 112.69 28.2101V8.8301H114.22C114.53 8.8301 114.73 8.8801 114.84 8.9901C114.95 9.1001 115 9.3001 115 9.6101V21.0701L114.54 25.4501H114.71L116.29 21.1601L121.63 8.8301Z" fill="white"/>
<path d="M85.27 28.9901C84.27 28.9901 83.57 28.7801 83.15 28.3701C82.74 27.9601 82.53 27.2501 82.53 26.2501V11.5701C82.53 10.5701 82.74 9.87008 83.15 9.45008C83.56 9.04008 84.27 8.83008 85.27 8.83008H88.98C89.54 8.83008 89.93 8.97008 90.18 9.25008C90.42 9.53008 90.6 9.95008 90.71 10.5001H86.19C85.59 10.5001 85.22 10.6301 85.07 10.8701C84.92 11.1201 84.84 11.5401 84.84 12.1401V25.6701C84.84 26.2701 84.92 26.6901 85.07 26.9401C85.22 27.1901 85.6 27.3101 86.19 27.3101H90.71V28.2001C90.71 28.5101 90.67 28.7101 90.58 28.8201C90.49 28.9301 90.3 28.9801 89.99 28.9801L85.27 28.9901Z" fill="white"/>
<path d="M70.79 18.3701L68.57 20.5901L66.94 18.9601L69.67 16.2301L70.75 17.3101C70.97 17.5301 71.08 17.7001 71.1 17.8401C71.11 17.9801 71.01 18.1601 70.79 18.3701ZM66.94 17.7001V8.83008H65.41C65.1 8.83008 64.9 8.88008 64.79 8.99008C64.68 9.10008 64.63 9.30008 64.63 9.61008V28.9901H66.16C66.47 28.9901 66.67 28.9401 66.78 28.8301C66.89 28.7201 66.94 28.5201 66.94 28.2101V19.3701V17.7001ZM73.3 8.83008C72.99 8.83008 72.79 8.88008 72.68 8.99008C72.57 9.10008 72.52 9.30008 72.52 9.61008V28.9901H74.05C74.36 28.9901 74.56 28.9401 74.67 28.8301C74.78 28.7201 74.83 28.5201 74.83 28.2101V8.83008H73.3Z" fill="white"/>
<path d="M56.31 9.45008C55.9 9.04008 55.19 8.83008 54.19 8.83008H50.48C49.92 8.83008 49.53 8.97008 49.28 9.25008C49.04 9.53008 48.86 9.95008 48.75 10.5001H53.27C53.87 10.5001 54.24 10.6301 54.39 10.8701C54.54 11.1201 54.62 11.5401 54.62 12.1401V17.7001H49.98V18.5901C49.98 18.9001 50.02 19.1001 50.11 19.2101C50.2 19.3201 50.39 19.3701 50.7 19.3701H54.62V25.6801C54.62 26.2801 54.54 26.7001 54.39 26.9501C54.24 27.2001 53.86 27.3201 53.27 27.3201H48.75V28.2101C48.75 28.5201 48.79 28.7201 48.88 28.8301C48.97 28.9401 49.16 28.9901 49.47 28.9901H54.19C55.19 28.9901 55.89 28.7801 56.31 28.3701C56.72 27.9601 56.93 27.2501 56.93 26.2501V11.5701C56.93 10.5701 56.73 9.86008 56.31 9.45008Z" fill="white"/>
<path d="M104.33 9.45008C103.92 9.04008 103.21 8.83008 102.21 8.83008H98.5C97.94 8.83008 97.55 8.97008 97.3 9.25008C97.06 9.53008 96.88 9.95008 96.77 10.5001H101.29C101.89 10.5001 102.26 10.6301 102.41 10.8701C102.56 11.1201 102.64 11.5401 102.64 12.1401V17.7001H98V18.5901C98 18.9001 98.04 19.1001 98.13 19.2101C98.22 19.3201 98.41 19.3701 98.72 19.3701H102.64V25.6801C102.64 26.2801 102.56 26.7001 102.41 26.9501C102.26 27.2001 101.88 27.3201 101.29 27.3201H96.77V28.2101C96.77 28.5201 96.81 28.7201 96.9 28.8301C96.99 28.9401 97.18 28.9901 97.49 28.9901H102.21C103.21 28.9901 103.91 28.7801 104.33 28.3701C104.74 27.9601 104.95 27.2501 104.95 26.2501V11.5701C104.95 10.5701 104.74 9.86008 104.33 9.45008Z" fill="white"/>
<path d="M2.62 36.61L0 33.99L17 16.99L19.62 19.61L2.62 36.61ZM19.62 2.62L17 0L0 17L2.62 19.61L19.62 2.62ZM19.62 11.12L17 8.5L0 25.5L2.62 28.12L19.62 11.12Z" fill="url(#paint0_linear)"/>
<path d="M22.78 16.45L36.61 2.62L33.99 0L17 17L18.31 20.16H30.83L17 33.99L19.62 36.61L36.61 19.61L35.3 16.45H22.78Z" fill="url(#paint1_linear)"/>
<defs>
<linearGradient id="paint0_linear" x1="0.495686" y1="14.5582" x2="40.9503" y2="31.618" gradientUnits="userSpaceOnUse">
<stop stop-color="#FFDD00"/>
<stop offset="1" stop-color="#E30613"/>
</linearGradient>
<linearGradient id="paint1_linear" x1="17.4954" y1="14.5582" x2="60.4476" y2="32.6246" gradientUnits="userSpaceOnUse">
<stop stop-color="#FFDD00"/>
<stop offset="1" stop-color="#E30613"/>
</linearGradient>
</defs>
</svg>
